<svg xmlns="http://www.w3.org/2000/svg" version="1.1" xmlns:xlink="http://www.w3.org/1999/xlink" xmlns:svgjs="http://svgjs.dev/svgjs" viewBox="0 0 2400 800" opacity="0.88"><defs><linearGradient x1="50%" y1="0%" x2="50%" y2="100%" id="oooscillate-grad"><stop stop-color="hsl(230, 55%, 50%)" stop-opacity="1" offset="0%"></stop><stop stop-color="hsl(230, 55%, 70%)" stop-opacity="1" offset="100%"></stop></linearGradient></defs><g stroke-width="1.5" stroke="url(#oooscillate-grad)" fill="none" stroke-linecap="round"><path d="M 0 340 Q 600 65 1200 400 Q 1800 735 2400 340" opacity="1.00"></path><path d="M 0 323 Q 600 65 1200 400 Q 1800 735 2400 323" opacity="0.95"></path><path d="M 0 306 Q 600 65 1200 400 Q 1800 735 2400 306" opacity="0.90"></path><path d="M 0 289 Q 600 65 1200 400 Q 1800 735 2400 289" opacity="0.85"></path><path d="M 0 272 Q 600 65 1200 400 Q 1800 735 2400 272" opacity="0.80"></path><path d="M 0 255 Q 600 65 1200 400 Q 1800 735 2400 255" opacity="0.75"></path><path d="M 0 238 Q 600 65 1200 400 Q 1800 735 2400 238" opacity="0.70"></path><path d="M 0 221 Q 600 65 1200 400 Q 1800 735 2400 221" opacity="0.65"></path><path d="M 0 204 Q 600 65 1200 400 Q 1800 735 2400 204" opacity="0.60"></path><path d="M 0 187 Q 600 65 1200 400 Q 1800 735 2400 187" opacity="0.55"></path><path d="M 0 170 Q 600 65 1200 400 Q 1800 735 2400 170" opacity="0.50"></path><path d="M 0 153 Q 600 65 1200 400 Q 1800 735 2400 153" opacity="0.45"></path><path d="M 0 136 Q 600 65 1200 400 Q 1800 735 2400 136" opacity="0.40"></path><path d="M 0 119 Q 600 65 1200 400 Q 1800 735 2400 119" opacity="0.35"></path><path d="M 0 102 Q 600 65 1200 400 Q 1800 735 2400 102" opacity="0.30"></path><path d="M 0 85 Q 600 65 1200 400 Q 1800 735 2400 85" opacity="0.25"></path><path d="M 0 68 Q 600 65 1200 400 Q 1800 735 2400 68" opacity="0.20"></path><path d="M 0 51 Q 600 65 1200 400 Q 1800 735 2400 51" opacity="0.15"></path><path d="M 0 34 Q 600 65 1200 400 Q 1800 735 2400 34" opacity="0.10"></path></g></svg>