<svg xmlns="http://www.w3.org/2000/svg" version="1.1" xmlns:xlink="http://www.w3.org/1999/xlink" xmlns:svgjs="http://svgjs.dev/svgjs" viewBox="0 0 800 800" opacity="0.85"><g stroke-width="2" stroke="hsl(0, 0%, 100%)" fill="none" stroke-linecap="round"><path d="M82.9 75.67Q92.19 77.03 101.47 78.9 110.75 81.2 120.04 83.82 129.32 86.63 138.61 89.51 147.89 92.31 157.17 94.92 166.46 97.2 175.74 99.05 185.03 100.38 194.31 101.13 203.59 101.27 212.88 100.79 222.16 99.71 231.45 98.08 240.73 95.98 250.02 93.51 259.3 90.78 268.58 87.92 277.87 85.06 287.15 82.34 296.44 79.89 305.72 77.81 315 76.21 324.29 75.16 333.57 74.71 342.86 74.88 352.14 75.67 361.43 77.03 370.71 78.9 379.99 81.2 389.28 83.82 398.56 86.63 407.85 89.51 417.13 92.31 426.41 94.92 435.7 97.2 444.98 99.05 454.27 100.38 463.55 101.13 472.83 101.27 482.12 100.79 491.4 99.71 500.69 98.08 509.97 95.98 519.26 93.51 528.54 90.78 537.82 87.92 547.11 85.06 556.39 82.34 565.68 79.88 574.96 77.81 584.24 76.21 593.53 75.16 602.81 74.71 612.1 74.88 621.38 75.67 630.66 77.03 639.95 78.91 649.23 81.21 658.52 83.82 667.8 86.64 677.09 89.51 682.02 99.3 688.49 109.09 696.17 118.89 704.65 128.68 713.51 138.47 722.29 148.26 730.55 158.05 737.86 167.84 743.84 177.64 748.19 187.43 750.69 197.22 751.21 207.01 749.72 216.8 746.3 226.59 741.12 236.39 734.45 246.18 726.63 255.97 718.07 265.76 709.19 275.55 700.46 285.35 692.31 295.14 685.18 304.93 679.42 314.72 675.32 324.51 673.1 334.3 672.88 344.1 674.65 353.89 678.34 363.68 683.75 373.47 690.61 383.26 698.56 393.05 707.2 402.85 716.08 412.64 724.76 422.43 732.78 432.22 739.74 442.01 745.28 451.8 749.11 461.6 751.04 471.39 750.98 481.18 748.92 490.97 744.97 500.76 739.33 510.55 732.29 520.35 724.21 530.14 715.51 539.93 706.63 549.72 698.02 559.51 690.13 569.3 683.35 579.1 678.05 588.89 674.48 598.68 672.83 608.47 673.19 618.26 675.53 628.05 679.74 637.85 685.6 647.64 692.81 657.43 701.01 667.22 709.77 677.01 718.64 686.8 727.17 696.6 722.11 700.29 700.93 686.91 690.78 681.74 680.64 677.98 670.5 675.81 660.35 675.34 650.21 676.58 640.06 679.47 629.92 683.88 619.78 689.61 609.63 696.39 599.49 703.9 589.35 711.78 579.2 719.67 569.06 727.21 558.91 734.03 548.77 739.83 538.63 744.32 528.48 747.3 518.34 748.63 508.2 748.25 498.05 746.17 487.91 742.49 477.76 737.39 467.62 731.1 457.48 723.91 447.33 716.17 437.19 708.24 427.05 700.48 416.9 693.26 406.76 686.91 396.61 681.74 386.47 677.98 376.33 675.81 366.18 675.34 356.04 676.58 345.89 679.47 335.75 683.89 325.61 689.62 315.46 696.4 305.32 703.9 295.18 711.79 285.03 719.68 274.89 727.22 264.74 734.04 254.6 739.83 244.46 744.32 234.31 747.3 224.17 748.63 214.03 748.24 203.88 746.16 193.74 742.49 183.59 737.38 173.45 731.09 163.31 723.91 153.16 716.17 143.02 708.23 132.88 700.47 122.73 693.25 112.59 686.91 102.44 681.73 92.3 677.98 91.34 668.57 90.21 659.16 88.96 649.74 87.67 640.33 86.39 630.92 85.2 621.51 84.14 612.1 83.29 602.69 82.67 593.28 82.33 583.87 82.28 574.46 82.52 565.04 83.04 555.63 83.82 546.22 84.8 536.81 85.96 527.4 87.21 517.99 88.51 508.58 89.78 499.17 90.96 489.76 91.98 480.34 92.81 470.93 93.38 461.52 93.68 452.11 93.69 442.7 93.41 433.29 92.85 423.88 92.04 414.47 91.03 405.06 89.86 395.64 88.59 386.23 87.3 376.82 86.03 367.41 84.87 358 83.87 348.59 83.08 339.18 82.55 329.77 82.29 320.36 82.32 310.95 82.64 301.53 83.24 292.12 84.08 282.71 85.12 273.3 86.31 263.89 87.59 254.48 88.88 245.07 90.13 235.66 91.27 226.25 92.24 216.83 93 207.42 93.5 198.01 93.72 188.6 93.64 179.19 93.28 169.78 92.64 160.37 91.77 150.96 90.7 141.55 89.5 132.13 88.22 122.72 86.92 113.31 85.69 103.9 84.57 94.49 83.62 85.08 82.9 75.67" stroke-dasharray="7 3" transform="rotate(0, 400, 400)"></path><path d="M95.35 89.06Q104.36 91.02 113.37 93.37 122.38 96.01 131.38 98.81 140.39 101.67 149.4 104.46 158.41 107.05 167.41 109.34 176.42 111.22 185.43 112.62 194.44 113.47 203.45 113.74 212.45 113.42 221.46 112.51 230.47 111.07 239.48 109.14 248.49 106.82 257.49 104.2 266.5 101.4 275.51 98.54 284.52 95.75 293.53 93.13 302.53 90.82 311.54 88.9 320.55 87.46 329.56 86.56 338.57 86.25 347.57 86.52 356.58 87.38 365.59 88.79 374.6 90.68 383.61 92.97 392.61 95.57 401.62 98.36 410.63 101.22 419.64 104.02 428.65 106.66 437.65 109 446.66 110.95 455.67 112.44 464.68 113.38 473.69 113.74 482.69 113.51 491.7 112.7 500.71 111.33 509.72 109.48 518.72 107.21 527.73 104.63 536.74 101.86 545.75 99 554.76 96.18 563.76 93.53 572.77 91.16 581.78 89.17 590.79 87.65 599.8 86.67 608.8 86.26 617.81 86.44 626.82 87.21 635.83 88.53 644.84 90.35 653.84 92.59 662.85 95.14 671.86 97.91 678.25 107.23 685.67 116.55 693.77 125.87 702.16 135.19 710.45 144.52 718.25 153.84 725.18 163.16 730.92 172.48 735.19 181.8 737.8 191.12 738.62 200.45 737.61 209.77 734.82 219.09 730.38 228.41 724.5 237.73 717.46 247.05 709.6 256.38 701.28 265.7 692.9 275.02 684.85 284.34 677.52 293.66 671.26 302.98 666.36 312.3 663.05 321.63 661.49 330.95 661.75 340.27 663.82 349.59 667.61 358.91 672.93 368.23 679.53 377.56 687.1 386.88 695.28 396.2 703.68 405.52 711.91 414.84 719.58 424.16 726.31 433.49 731.81 442.81 735.79 452.13 738.08 461.45 738.57 470.77 737.23 480.09 734.13 489.42 729.41 498.74 723.3 508.06 716.09 517.38 708.11 526.7 699.75 536.02 691.4 545.35 683.46 554.67 676.3 563.99 670.26 573.31 665.64 582.63 662.63 591.95 661.4 601.28 661.99 610.6 664.38 619.92 668.46 629.24 674.04 638.56 680.84 647.88 688.54 657.21 696.79 666.53 705.2 675.85 702.11 680.38 682.28 669.77 672.64 666.29 662.99 664.26 653.34 663.77 643.7 664.86 634.05 667.46 624.4 671.47 614.75 676.71 605.11 682.96 595.46 689.95 585.81 697.37 576.16 704.9 566.52 712.23 556.87 719.02 547.22 724.99 537.57 729.88 527.93 733.48 518.28 735.63 508.63 736.24 498.98 735.28 489.34 732.79 479.69 728.89 470.04 723.74 460.39 717.56 450.75 710.62 441.1 703.22 431.45 695.68 421.81 688.33 412.16 681.49 402.51 675.44 392.86 670.45 383.22 666.75 373.57 664.48 363.92 663.75 354.27 664.58 344.63 666.95 334.98 670.74 325.33 675.8 315.68 681.91 306.04 688.8 296.39 696.17 286.74 703.71 277.09 711.09 267.45 717.98 257.8 724.1 248.15 729.18 238.5 733 228.86 735.39 219.21 736.24 209.56 735.53 199.92 733.29 190.27 729.6 180.62 724.63 170.97 718.6 161.33 711.76 151.68 704.42 142.03 696.88 132.38 689.48 122.74 682.53 113.09 676.34 103.44 671.17 102.2 662.07 100.85 652.98 99.47 643.88 98.11 634.79 96.83 625.69 95.71 616.6 94.79 607.5 94.12 598.4 93.72 589.31 93.62 580.21 93.83 571.12 94.32 562.02 95.09 552.93 96.08 543.83 97.27 534.74 98.58 525.64 99.95 516.55 101.33 507.45 102.65 498.36 103.84 489.26 104.85 480.16 105.63 471.07 106.14 461.97 106.36 452.88 106.28 443.78 105.9 434.69 105.25 425.59 104.34 416.5 103.23 407.4 101.96 398.31 100.6 389.21 99.22 380.11 97.87 371.02 96.62 361.92 95.53 352.83 94.65 343.73 94.02 334.64 93.68 325.54 93.64 316.45 93.9 307.35 94.44 298.26 95.25 289.16 96.29 280.06 97.5 270.97 98.82 261.87 100.21 252.78 101.58 243.68 102.88 234.59 104.04 225.49 105.01 216.4 105.74 207.3 106.2 198.21 106.37 189.11 106.23 180.02 105.8 170.92 105.1 161.82 104.15 152.73 103.01 143.63 101.72 134.54 100.35 125.44 98.97 116.35 97.63 107.25 96.41 98.16 95.35 89.06" stroke-dasharray="9 2" transform="rotate(7.4, 400, 400)"></path><path d="M108.4 103.37Q117.16 105.78 125.91 108.44 134.66 111.25 143.41 114.08 152.17 116.83 160.92 119.38 169.67 121.65 178.42 123.52 187.18 124.94 195.93 125.84 204.68 126.19 213.43 125.97 222.19 125.2 230.94 123.9 239.69 122.12 248.45 119.95 257.2 117.45 265.95 114.74 274.7 111.91 283.46 109.09 292.21 106.39 300.96 103.91 309.71 101.75 318.47 100 327.22 98.73 335.97 97.99 344.72 97.8 353.48 98.18 362.23 99.12 370.98 100.56 379.73 102.46 388.49 104.74 397.24 107.31 405.99 110.07 414.74 112.9 423.5 115.7 432.25 118.35 441 120.75 449.75 122.79 458.51 124.41 467.26 125.53 476.01 126.11 484.76 126.13 493.52 125.59 502.27 124.5 511.02 122.92 519.77 120.9 528.53 118.52 537.28 115.88 546.03 113.09 554.78 110.26 563.54 107.49 572.29 104.91 581.04 102.6 589.79 100.68 598.55 99.2 607.3 98.23 616.05 97.81 624.81 97.96 633.56 98.66 642.31 99.9 651.06 101.62 659.82 103.76 668.57 106.22 675.77 115.08 683.51 123.94 691.45 132.8 699.23 141.67 706.52 150.53 713.01 159.39 718.4 168.26 722.46 177.12 725.03 185.98 725.97 194.84 725.26 203.71 722.92 212.57 719.06 221.43 713.84 230.29 707.49 239.16 700.29 248.02 692.56 256.88 684.62 265.74 676.84 274.61 669.54 283.47 663.04 292.33 657.64 301.2 653.56 310.06 650.98 318.92 650.02 327.78 650.72 336.65 653.04 345.51 656.89 354.37 662.1 363.23 668.43 372.1 675.62 380.96 683.36 389.82 691.29 398.68 699.08 407.55 706.39 416.41 712.89 425.27 718.31 434.14 722.4 443 724.99 451.86 725.97 460.72 725.29 469.59 722.98 478.45 719.15 487.31 713.95 496.17 707.62 505.04 700.44 513.9 692.71 522.76 684.78 531.62 676.99 540.49 669.67 549.35 663.16 558.21 657.73 567.08 653.62 575.94 651.02 584.8 650.02 593.66 650.69 602.53 652.98 611.39 656.8 620.25 661.98 629.11 668.3 637.98 675.48 646.84 683.2 655.7 680.99 661.7 662.37 654.39 653.23 652.61 644.09 652.24 634.95 653.29 625.82 655.73 616.68 659.46 607.54 664.32 598.4 670.13 589.26 676.65 580.12 683.62 570.98 690.77 561.84 697.8 552.7 704.45 543.56 710.44 534.42 715.53 525.28 719.53 516.14 722.27 507 723.64 497.87 723.59 488.73 722.12 479.59 719.3 470.45 715.22 461.31 710.06 452.17 704.02 443.03 697.34 433.89 690.29 424.75 683.15 415.61 676.2 406.47 669.72 397.33 663.96 388.19 659.17 379.06 655.53 369.92 653.18 360.78 652.22 351.64 652.68 342.5 654.55 333.36 657.76 324.22 662.17 315.08 667.61 305.94 673.87 296.8 680.68 287.66 687.79 278.52 694.91 269.38 701.75 260.24 708.04 251.11 713.53 241.97 718.01 232.83 721.29 223.69 723.24 214.55 723.79 205.41 722.9 196.27 720.63 187.13 717.06 177.99 712.33 168.85 706.62 159.71 700.18 150.57 693.25 141.43 686.11 132.29 679.04 123.16 672.34 114.02 666.25 112.58 657.46 111.11 648.66 109.68 639.87 108.35 631.07 107.19 622.28 106.23 613.48 105.52 604.69 105.1 595.89 104.98 587.1 105.16 578.3 105.64 569.51 106.4 560.71 107.4 551.92 108.61 543.12 109.96 534.33 111.4 525.53 112.87 516.74 114.3 507.94 115.62 499.15 116.79 490.35 117.75 481.56 118.46 472.76 118.89 463.97 119.01 455.17 118.83 446.38 118.35 437.58 117.6 428.79 116.6 419.99 115.39 411.2 114.04 402.4 112.6 393.61 111.14 384.81 109.71 376.02 108.38 367.22 107.21 358.43 106.25 349.63 105.53 340.84 105.1 332.04 104.98 323.25 105.15 314.45 105.63 305.66 106.38 296.86 107.38 288.07 108.58 279.27 109.93 270.48 111.37 261.68 112.84 252.89 114.27 244.09 115.6 235.3 116.77 226.5 117.74 217.71 118.45 208.91 118.88 200.12 119.01 191.32 118.84 182.53 118.37 173.73 117.61 164.94 116.62 156.14 115.42 147.35 114.07 138.55 112.63 129.76 111.17 120.96 109.74 112.17 108.4 103.37" stroke-dasharray="4 1" transform="rotate(14.8, 400, 400)"></path><path d="M122.04 118.48Q139.05 123.96 156.07 129.44 173.08 134.13 190.09 137.35 207.11 138.63 224.12 137.79 241.14 134.95 258.15 130.51 275.16 125.13 292.18 119.59 309.19 114.68 326.2 111.13 343.22 109.44 360.23 109.87 377.24 112.35 394.26 116.51 411.27 121.77 428.28 127.35 445.3 132.44 462.31 136.3 479.32 138.38 496.34 138.37 513.35 136.28 530.37 132.4 547.38 127.3 564.39 121.72 581.41 116.47 598.42 112.32 615.43 109.86 632.45 109.45 649.46 111.15 666.47 114.72 681.33 131.56 695.33 148.4 706.27 165.24 712.4 182.08 712.75 198.92 707.26 215.76 696.81 232.6 683.05 249.44 668.18 266.28 654.54 283.12 644.31 299.96 639.12 316.8 639.77 333.64 646.18 350.48 657.33 367.32 671.43 384.16 686.27 401 699.47 417.84 708.94 434.68 713.18 451.53 711.52 468.37 704.22 485.21 692.43 502.05 678.04 518.89 663.32 535.73 650.61 552.57 641.94 569.41 638.67 586.25 641.33 603.09 649.49 619.93 660.54 640.89 641.96 640.89 624.69 641.88 607.43 647.82 590.17 657.85 572.91 670.51 555.64 683.97 538.38 696.27 521.12 705.63 503.86 710.69 486.6 710.71 469.33 705.69 452.07 696.36 434.81 684.08 417.55 670.62 400.29 657.95 383.02 647.89 365.76 641.91 348.5 640.88 331.24 644.95 313.98 653.52 296.71 665.36 279.45 678.74 262.19 691.72 244.93 702.42 227.67 709.28 210.4 711.32 193.14 708.22 175.88 700.45 158.62 689.13 141.36 675.9 124.09 662.69 121.09 645.68 118.55 628.67 116.88 611.67 116.33 594.66 117 577.65 118.78 560.65 121.39 543.64 124.41 526.63 127.37 509.63 129.79 492.62 131.29 475.61 131.63 458.61 130.76 441.6 128.81 424.59 126.1 407.59 123.06 390.58 120.16 373.58 117.87 356.57 116.56 339.56 116.42 322.56 117.49 305.55 119.59 288.54 122.39 271.54 125.44 254.53 128.27 237.52 130.41 220.52 131.54 203.51 131.47 186.5 130.21 169.5 127.97 152.49 125.09 135.49 122.04 118.48" stroke-dasharray="1 8" transform="rotate(22.2, 400, 400)"></path><path d="M136.17 134.2Q152.69 139.69 169.21 144.69 185.73 148.54 202.25 150.72 218.77 150.94 235.28 149.17 251.8 145.66 268.32 140.85 284.84 135.41 301.36 130.04 317.88 125.46 334.4 122.28 350.92 120.93 367.43 121.58 383.95 124.14 400.47 128.28 416.99 133.45 433.51 138.96 450.03 144.07 466.55 148.11 483.07 150.53 499.58 151.03 516.1 149.53 532.62 146.22 549.14 141.56 565.66 136.16 582.18 130.73 598.7 126.01 615.22 122.61 631.74 120.99 648.25 121.37 664.77 123.69 678.45 139.69 690.02 155.68 697.81 171.68 700.68 187.67 698.22 203.67 690.77 219.67 679.43 235.66 665.85 251.66 652 267.65 639.89 283.65 631.29 299.65 627.44 315.64 628.91 331.64 635.49 347.63 646.21 363.63 659.51 379.62 673.47 395.62 686.05 411.62 695.42 427.61 700.23 443.61 699.76 459.6 694.09 475.6 684.04 491.6 671.08 507.59 657.09 523.59 644.1 539.58 634 555.58 628.27 571.57 627.74 587.57 632.47 603.57 639.94 624.88 621.81 629.33 605.55 633.06 589.28 640.92 573.01 651.84 556.75 664.37 540.48 676.86 524.21 687.63 507.95 695.27 491.68 698.74 475.41 697.6 459.15 691.99 442.88 682.65 426.61 670.84 410.34 658.12 394.08 646.17 377.81 636.6 361.54 630.67 345.28 629.17 329.01 632.3 312.74 639.64 296.48 650.22 280.21 662.63 263.94 675.23 247.68 686.33 231.41 694.46 215.14 698.54 198.88 698.03 182.61 692.99 166.34 684.1 150.08 672.54 133.81 659.84 130.97 643.41 128.86 626.99 127.78 610.56 127.9 594.13 129.2 577.71 131.49 561.28 134.43 544.85 137.6 528.43 140.54 512 142.81 495.58 144.09 479.15 144.2 462.72 143.11 446.3 140.99 429.87 138.14 413.44 134.98 397.02 131.97 380.59 129.54 364.17 128.05 347.74 127.72 331.31 128.59 314.89 130.54 298.46 133.28 282.03 136.42 265.61 139.49 249.18 142.06 232.75 143.75 216.33 144.3 199.9 143.65 183.48 141.89 167.05 139.27 150.62 136.17 134.2" stroke-dasharray="4 7" transform="rotate(29.6, 400, 400)"></path><path d="M150.64 150.28Q166.64 155.41 182.64 159.65 198.64 162.47 214.65 163.54 230.65 162.72 246.65 160.12 262.65 156.05 278.65 151 294.65 145.58 310.65 140.46 326.65 136.25 342.65 133.47 358.65 132.45 374.65 133.31 390.65 135.95 406.65 140.06 422.65 145.12 438.65 150.54 454.65 155.64 470.65 159.82 486.65 162.57 502.65 163.54 518.65 162.64 534.65 159.96 550.65 155.82 566.65 150.74 582.65 145.33 598.65 140.23 614.66 136.08 630.66 133.38 646.66 132.45 662.66 133.4 674.28 148.59 682.95 163.79 687.51 178.98 687.36 194.18 682.52 209.37 673.63 224.57 661.87 239.77 648.79 254.96 636.15 270.16 625.6 285.35 618.56 300.55 615.96 315.74 618.13 330.94 624.8 346.13 635.07 361.33 647.59 376.53 660.7 391.72 672.65 406.92 681.86 422.11 687.11 437.31 687.7 452.5 683.55 467.7 675.22 482.89 663.81 498.09 650.82 513.29 638 528.48 627.03 543.68 619.38 558.87 616.05 574.07 617.49 589.26 620.75 611 602.68 619.61 587.37 625.61 572.06 634.8 556.75 646.08 541.44 658.08 526.13 669.34 510.82 678.49 495.5 684.43 480.19 686.44 464.88 684.28 449.57 678.19 434.26 668.94 418.95 657.62 403.64 645.63 388.33 634.4 373.02 625.31 357.71 619.46 342.39 617.55 327.08 619.82 311.77 625.98 296.46 635.31 281.15 646.65 265.84 658.65 250.53 669.83 235.22 678.86 219.91 684.63 204.6 686.44 189.28 684.07 173.97 677.82 158.66 668.43 143.35 657.05 140.92 641.21 139.42 625.38 139.06 609.54 139.89 593.7 141.79 577.87 144.52 562.03 147.7 546.19 150.93 530.36 153.76 514.52 155.83 498.68 156.86 482.85 156.72 467.01 155.41 451.17 153.13 435.34 150.16 419.5 146.9 403.66 143.79 387.83 141.24 371.99 139.58 356.15 139.04 340.32 139.69 324.48 141.44 308.64 144.06 292.81 147.2 276.97 150.45 261.13 153.37 245.3 155.58 229.46 156.78 213.62 156.82 197.79 155.69 181.95 153.53 166.11 150.64 150.28" stroke-dasharray="7 10" transform="rotate(37, 400, 400)"></path><path d="M165.25 166.43Q180.69 170.87 196.13 174.11 211.57 175.8 227.02 175.75 242.46 173.96 257.9 170.64 273.34 166.14 288.78 160.97 304.22 155.69 319.66 150.89 335.11 147.08 350.55 144.7 365.99 144 381.43 145.07 396.87 147.77 412.31 151.83 427.75 156.78 443.2 162.08 458.64 167.16 474.08 171.44 489.52 174.47 504.96 175.9 520.4 175.59 535.84 173.55 551.29 170.02 566.73 165.39 582.17 160.17 597.61 154.92 613.05 150.24 628.49 146.63 643.93 144.49 659.38 144.05 668.33 158.49 673.88 172.93 675.34 187.37 672.55 201.81 665.83 216.25 656 230.69 644.25 245.13 631.98 259.57 620.68 274.01 611.7 288.45 606.13 302.89 604.64 317.33 607.41 331.77 614.11 346.21 623.92 360.65 635.67 375.09 647.94 389.52 659.25 403.96 668.25 418.4 673.84 432.84 675.35 447.28 672.6 461.72 665.93 476.16 656.13 490.6 644.39 505.04 632.12 519.48 620.8 533.92 611.79 548.36 606.18 562.8 604.64 577.24 607.36 591.68 614.01 606.12 599.6 607.04 585.19 611.59 570.79 619.26 556.38 629.22 541.97 640.36 527.56 651.47 513.15 661.31 498.74 668.8 484.34 673.13 469.93 673.8 455.52 670.76 441.11 664.32 426.7 655.21 412.3 644.43 397.89 633.16 383.48 622.63 369.07 614.02 354.66 608.27 340.25 606.02 325.85 607.5 311.44 612.56 297.03 620.64 282.62 630.85 268.21 642.07 253.81 653.06 239.4 662.61 224.99 669.67 210.58 673.47 196.17 673.58 181.76 669.99 167.36 663.1 152.95 653.67 151.14 638.44 150.41 623.22 150.82 607.99 152.35 592.77 154.79 577.54 157.86 562.31 161.19 547.09 164.37 531.86 167.03 516.63 168.84 501.41 169.58 486.18 169.17 470.96 167.66 455.73 165.22 440.5 162.15 425.28 158.82 410.05 155.64 394.82 152.98 379.6 151.16 364.37 150.41 349.15 150.81 333.92 152.32 318.69 154.76 303.47 157.82 288.24 161.15 273.01 164.34 257.79 167 242.56 168.82 227.34 169.58 212.11 169.18 196.88 167.68 181.66 165.25 166.43" stroke-dasharray="7 5" transform="rotate(44.4, 400, 400)"></path><path d="M179.75 182.35Q194.58 185.81 209.41 187.91 224.24 188.42 239.07 187.29 253.9 184.65 268.73 180.75 283.56 175.97 298.39 170.81 313.22 165.76 328.05 161.33 342.87 157.96 357.7 155.98 372.53 155.6 387.36 156.85 402.19 159.61 417.02 163.6 431.85 168.42 446.68 173.6 461.51 178.61 476.34 182.97 491.17 186.24 506 188.09 520.83 188.35 535.66 186.97 550.49 184.11 565.32 180.04 580.15 175.17 594.98 169.98 609.81 165 624.64 160.71 639.47 157.55 654.3 155.82 660.26 169.54 662.71 183.26 661.38 196.99 656.42 210.71 648.36 224.44 638.09 238.16 626.72 251.89 615.49 265.61 605.62 279.34 598.19 293.06 593.99 306.78 593.5 320.51 596.76 334.23 603.42 347.96 612.76 361.68 623.75 375.41 635.2 389.13 645.87 402.85 654.6 416.58 660.43 430.3 662.73 444.03 661.25 457.75 656.15 471.48 647.99 485.2 637.65 498.93 626.26 512.65 615.06 526.37 605.27 540.1 597.95 553.82 593.9 567.55 593.56 581.27 596.97 595 583.4 598.52 569.84 604.98 556.27 613.73 542.7 623.89 529.14 634.47 515.57 644.4 502.01 652.7 488.44 658.54 474.87 661.34 461.31 660.83 447.74 657.05 434.17 650.39 420.61 641.49 407.04 631.26 393.48 620.7 379.91 610.86 366.34 602.73 352.78 597.11 339.21 594.57 325.64 595.34 312.08 599.37 298.51 606.24 284.95 615.27 271.38 625.57 257.81 636.11 244.25 645.84 230.68 653.8 217.11 659.2 203.55 661.48 189.98 660.44 176.42 656.18 162.85 649.11 161.84 634.52 161.94 619.93 163.14 605.35 165.3 590.76 168.18 576.18 171.48 561.59 174.84 547 177.89 532.42 180.29 517.83 181.8 503.24 182.23 488.66 181.56 474.07 179.84 459.49 177.27 444.9 174.12 430.31 170.74 415.73 167.5 401.14 164.75 386.55 162.79 371.97 161.83 357.38 161.97 342.8 163.21 328.21 165.4 313.62 168.31 299.04 171.62 284.45 174.97 269.86 178 255.28 180.37 240.69 181.84 226.11 182.23 211.52 181.51 196.93 179.75 182.35" stroke-dasharray="6 1" transform="rotate(51.800000000000004, 400, 400)"></path><path d="M193.88 197.72Q208.04 200.02 222.2 200.89 236.35 200.25 250.51 198.16 264.67 194.81 278.83 190.49 292.99 185.59 307.15 180.54 321.31 175.81 335.46 171.8 349.62 168.89 363.78 167.32 377.94 167.25 392.1 168.67 406.26 171.46 420.42 175.37 434.57 180.05 448.73 185.08 462.89 190.01 477.05 194.41 491.21 197.88 505.37 200.11 519.53 200.89 533.68 200.17 547.84 198.01 562 194.59 576.16 190.22 590.32 185.3 604.48 180.27 618.64 175.56 632.79 171.61 646.95 168.76 649.86 181.81 649.46 194.85 645.79 207.9 639.2 220.94 630.35 233.98 620.09 247.03 609.43 260.07 599.42 273.11 591.02 286.16 585.07 299.2 582.14 312.25 582.52 325.29 586.17 338.33 592.74 351.38 601.58 364.42 611.83 377.47 622.49 390.51 632.51 403.55 640.92 416.6 646.89 429.64 649.85 442.68 649.49 455.73 645.86 468.77 639.31 481.82 630.48 494.86 620.23 507.9 609.57 520.95 599.54 533.99 591.12 547.03 585.13 560.08 582.15 573.12 582.49 586.17 569.7 591.74 556.91 599.48 544.13 608.69 531.34 618.56 518.55 628.2 505.77 636.74 492.98 643.44 480.19 647.68 467.4 649.09 454.62 647.55 441.83 643.19 429.04 636.4 416.25 627.78 403.47 618.12 390.68 608.26 377.89 599.09 365.11 591.44 352.32 585.98 339.53 583.2 326.74 583.35 313.96 586.41 301.17 592.12 288.38 599.96 275.6 609.23 262.81 619.11 250.02 628.71 237.23 637.17 224.45 643.75 211.66 647.84 198.87 649.09 186.08 647.38 173.3 642.87 173.19 628.96 174.14 615.04 176.05 601.13 178.74 587.22 181.94 573.31 185.35 559.4 188.62 545.49 191.44 531.58 193.53 517.67 194.69 503.76 194.8 489.85 193.86 475.93 191.95 462.02 189.27 448.11 186.07 434.2 182.66 420.29 179.39 406.38 176.57 392.47 174.47 378.56 173.31 364.65 173.19 350.74 174.12 336.83 176.02 322.91 178.7 309 181.9 295.09 185.3 281.18 188.58 267.27 191.4 253.36 193.51 239.45 194.68 225.54 194.81 211.63 193.88 197.72" stroke-dasharray="7 7" transform="rotate(59.2, 400, 400)"></path><path d="M207.39 212.25Q220.82 213.3 234.25 212.96 247.67 211.28 261.1 208.37 274.53 204.48 287.96 199.91 301.38 195.03 314.81 190.22 328.24 185.88 341.66 182.34 355.09 179.89 368.52 178.73 381.95 178.94 395.37 180.51 408.8 183.32 422.23 187.14 435.66 191.66 449.08 196.53 462.51 201.36 475.94 205.75 489.36 209.38 502.79 211.93 516.22 213.21 529.65 213.12 543.07 211.67 556.5 208.96 569.93 205.22 583.35 200.75 596.78 195.89 610.21 191.05 630.38 190.94 634.29 207.67 628.81 220.06 621.17 232.45 612.03 244.84 602.19 257.23 592.5 269.62 583.82 282.01 576.9 294.39 572.34 306.78 570.55 319.17 571.67 331.56 575.62 343.95 582.04 356.34 590.38 368.73 599.91 381.12 609.79 393.51 619.17 405.89 627.22 418.28 633.25 430.67 636.72 443.06 637.34 455.45 635.04 467.84 630.04 480.23 622.76 492.62 613.85 505.01 604.08 517.4 594.29 529.78 585.36 542.17 578.05 554.56 573.01 566.95 570.67 579.34 558.6 586.31 546.53 594.68 534.46 603.8 522.4 612.94 510.33 621.36 498.26 628.4 486.19 633.49 474.13 636.23 462.06 636.4 449.99 633.98 437.92 629.18 425.86 622.36 413.79 614.08 401.72 605 389.65 595.84 377.59 587.32 365.52 580.14 353.45 574.86 341.38 571.9 329.32 571.5 317.25 573.7 305.18 578.3 293.11 584.96 281.05 593.14 268.98 602.18 256.91 611.36 244.84 619.96 232.78 627.29 220.71 632.75 208.64 635.93 196.57 636.56 184.51 634.59 185.31 621.39 187.05 608.19 189.57 594.99 192.65 581.8 196.02 568.6 199.39 555.4 202.46 542.2 204.97 529 206.7 515.81 207.49 502.61 207.27 489.41 206.08 476.21 204 463.01 201.22 449.82 197.99 436.62 194.59 423.42 191.3 410.22 188.43 397.02 186.21 383.83 184.85 370.63 184.47 357.43 185.09 344.23 186.66 331.03 189.04 317.84 192.03 304.64 195.37 291.44 198.76 278.24 201.92 265.04 204.55 251.85 206.44 238.65 207.41 225.45 207.39 212.25" stroke-dasharray="0 1" transform="rotate(66.6, 400, 400)"></path><path d="M220.08 225.72Q232.72 225.52 245.36 224.08 258 221.5 270.64 217.96 283.28 213.72 295.92 209.08 308.56 204.36 321.2 199.9 333.84 196.01 346.48 192.96 359.12 190.98 371.76 190.2 384.4 190.68 397.04 192.39 409.68 195.19 422.32 198.91 434.96 203.26 447.6 207.95 460.24 212.64 472.88 217.01 485.52 220.73 498.16 223.56 510.8 225.28 523.44 225.79 536.08 225.03 548.72 223.08 561.36 220.05 574 216.17 586.64 211.72 599.28 207 617.05 206.1 617.45 221.6 610.76 233.35 602.62 245.1 593.66 256.85 584.56 268.6 576.04 280.35 568.76 292.1 563.27 303.85 560.01 315.6 559.22 327.35 560.97 339.1 565.12 350.85 571.34 362.6 579.17 374.35 587.99 386.1 597.11 397.85 605.85 409.6 613.51 421.35 619.5 433.1 623.37 444.85 624.81 456.6 623.71 468.35 620.16 480.1 614.42 491.85 606.96 503.6 598.33 515.35 589.22 527.1 580.31 538.85 572.32 550.6 565.84 562.35 561.39 574.1 549.99 581.79 538.6 590.2 527.2 598.73 515.8 606.79 504.4 613.81 493 619.28 481.6 622.82 470.2 624.18 458.81 623.27 447.41 620.15 436.01 615.04 424.61 608.29 413.21 600.4 401.81 591.91 390.41 583.43 379.02 575.55 367.62 568.84 356.22 563.76 344.82 560.68 333.42 559.81 322.02 561.22 310.62 564.8 299.23 570.31 287.83 577.34 276.43 585.42 265.03 593.96 253.63 602.36 242.23 610.02 230.83 616.42 219.44 621.08 203.16 617.66 200.69 599.17 203.66 586.72 206.96 574.27 210.35 561.82 213.55 549.38 216.32 536.93 218.45 524.48 219.76 512.03 220.17 499.58 219.64 487.13 218.2 474.69 215.98 462.24 213.14 449.79 209.89 437.34 206.51 424.89 203.23 412.45 200.33 400 198.02 387.55 196.48 375.1 195.83 362.65 196.12 350.2 197.34 337.76 199.37 325.31 202.08 312.86 205.24 300.41 208.61 287.96 211.94 275.52 214.96 263.07 217.44 250.62 219.19 238.17 220.08 225.72" stroke-dasharray="10 7" transform="rotate(74, 400, 400)"></path><path d="M231.79 237.96Q243.59 236.61 255.4 234.23 267.21 230.96 279.01 227.01 290.82 222.62 302.62 218.07 314.43 213.64 326.24 209.6 338.04 206.22 349.85 203.68 361.65 202.17 373.46 201.76 385.27 202.48 397.07 204.29 408.88 207.08 420.68 210.68 432.49 214.85 444.3 219.34 456.1 223.87 467.91 228.16 479.71 231.95 491.52 234.99 503.33 237.1 515.13 238.14 526.94 238.06 538.74 236.85 550.55 234.6 562.36 231.43 574.16 227.56 585.97 223.22 601.54 222 599.3 236.44 591.99 247.56 583.86 258.68 575.47 269.79 567.38 280.91 560.15 292.02 554.28 303.14 550.15 314.26 548.06 325.37 548.14 336.49 550.38 347.61 554.65 358.72 560.63 369.84 567.94 380.95 576.06 392.07 584.46 403.19 592.55 414.3 599.78 425.42 605.67 436.54 609.81 447.65 611.93 458.77 611.86 469.89 609.63 481 605.39 492.12 599.41 503.23 592.11 514.35 583.99 525.47 575.6 536.58 567.5 547.7 560.26 558.82 554.36 569.93 543.59 577.69 532.82 585.6 522.05 593.16 511.28 599.9 500.52 605.4 489.75 609.32 478.98 611.42 468.21 611.56 457.44 609.75 446.68 606.08 435.91 600.79 425.14 594.21 414.37 586.74 403.6 578.86 392.83 571.04 382.07 563.78 371.3 557.53 360.53 552.68 349.76 549.52 338.99 548.26 328.23 548.98 317.46 551.62 306.69 556.02 295.92 561.92 285.15 568.94 274.38 576.65 263.62 584.56 252.85 592.19 242.08 599.07 231.31 604.75 216.34 604.24 215.02 587.92 218.24 576.26 221.59 564.59 224.83 552.93 227.73 541.26 230.12 529.59 231.81 517.93 232.7 506.26 232.72 494.6 231.88 482.93 230.23 471.27 227.88 459.6 225 447.94 221.77 436.27 218.43 424.61 215.19 412.94 212.28 401.28 209.89 389.61 208.19 377.95 207.3 366.28 207.26 354.61 208.1 342.95 209.74 331.28 212.09 319.62 214.97 307.95 218.19 296.29 221.54 284.62 224.78 272.96 227.69 261.29 230.08 249.63 231.79 237.96" stroke-dasharray="10 6" transform="rotate(81.4, 400, 400)"></path><path d="M242.44 248.89Q253.38 246.58 264.32 243.47 275.26 239.75 286.19 235.61 297.13 231.27 308.07 226.96 319.01 222.94 329.95 219.4 340.88 216.54 351.82 214.53 362.76 213.46 373.7 213.39 384.64 214.33 395.57 216.23 406.51 218.99 417.45 222.45 428.39 226.42 439.32 230.7 450.26 235.05 461.2 239.23 472.14 243.02 483.08 246.22 494.01 248.64 504.95 250.16 515.89 250.69 526.83 250.22 537.76 248.75 548.7 246.38 559.64 243.22 570.58 239.46 578.54 250.37 565.2 272.86 557.69 283.34 550.79 293.82 544.91 304.3 540.4 314.78 537.53 325.25 536.47 335.73 537.28 346.21 539.91 356.69 544.2 367.17 549.91 377.64 556.69 388.12 564.14 398.6 571.82 409.08 579.28 419.56 586.06 430.03 591.77 440.51 596.07 450.99 598.71 461.47 599.52 471.95 598.46 482.42 595.6 492.9 591.09 503.38 585.22 513.86 578.33 524.34 570.82 534.81 563.14 545.29 555.75 555.77 549.09 566.25 538.93 573.52 528.77 580.49 518.61 586.79 508.44 592.07 498.28 596.04 488.12 598.49 477.96 599.29 467.8 598.4 457.64 595.85 447.48 591.8 437.31 586.45 427.15 580.11 416.99 573.11 406.83 565.83 396.67 558.67 386.51 552.01 376.34 546.22 366.18 541.61 356.02 538.43 345.86 536.86 335.7 536.97 325.54 538.76 315.37 542.13 305.21 546.91 295.05 552.83 284.89 559.57 274.73 566.77 264.57 574.04 254.4 580.98 244.24 587.21 230.42 588.91 229.92 574.56 233.2 563.7 236.41 552.85 239.35 541.99 241.86 531.14 243.79 520.28 245.01 509.43 245.46 498.57 245.12 487.71 243.99 476.86 242.15 466 239.71 455.15 236.81 444.29 233.63 433.44 230.35 422.58 227.17 411.72 224.27 400.87 221.83 390.01 220 379.16 218.87 368.3 218.53 357.45 218.98 346.59 220.21 335.73 222.13 324.88 224.64 314.02 227.59 303.17 230.8 292.31 234.08 281.46 237.23 270.6 240.08 259.74 242.44 248.89" stroke-dasharray="9 10" transform="rotate(88.8, 400, 400)"></path><path d="M252.07 258.52Q262.12 255.5 272.17 251.94 282.22 248.01 292.27 243.89 302.32 239.77 312.36 235.85 322.41 232.32 332.46 229.33 342.51 227.02 352.56 225.51 362.61 224.87 372.66 225.12 382.71 226.25 392.76 228.21 402.81 230.91 412.86 234.22 422.91 237.99 432.96 242.03 443.01 246.18 453.06 250.21 463.11 253.96 473.16 257.24 483.21 259.91 493.26 261.83 503.31 262.91 513.36 263.11 523.41 262.42 533.46 260.86 543.51 258.52 553.56 255.49 559.67 266.18 546.92 287.31 540.52 297.13 534.9 306.96 530.37 316.79 527.15 326.61 525.41 336.44 525.23 346.27 526.63 356.09 529.53 365.92 533.78 375.75 539.17 385.57 545.43 395.4 552.22 405.23 559.21 415.05 566.03 424.88 572.34 434.71 577.81 444.53 582.17 454.36 585.19 464.19 586.71 474.01 586.66 483.84 585.03 493.67 581.93 503.49 577.49 513.32 571.96 523.14 565.6 532.97 558.76 542.8 551.77 552.62 545 562.45 535.44 568.78 525.88 574.52 516.31 579.39 506.75 583.17 497.19 585.67 487.62 586.79 478.06 586.47 468.5 584.72 458.93 581.63 449.37 577.34 439.81 572.05 430.24 566.01 420.68 559.51 411.11 552.84 401.55 546.31 391.99 540.24 382.42 534.91 372.86 530.56 363.3 527.4 353.73 525.58 344.17 525.18 334.61 526.22 325.04 528.66 315.48 532.37 305.92 537.19 296.35 542.88 286.79 549.19 277.23 555.82 267.66 562.46 258.1 568.79 246.84 560.63 251.29 539.28 253.82 529.26 255.85 519.23 257.27 509.2 258.01 499.18 258.03 489.15 257.34 479.12 255.96 469.09 253.97 459.07 251.47 449.04 248.58 439.01 245.46 428.98 242.27 418.96 239.17 408.93 236.31 398.9 233.84 388.87 231.9 378.85 230.57 368.82 229.93 358.79 230.02 348.77 230.81 338.74 232.28 328.71 234.36 318.68 236.92 308.66 239.85 298.63 242.99 288.6 246.18 278.57 249.26 268.55 252.07 258.52" stroke-dasharray="8 10" transform="rotate(96.2, 400, 400)"></path><path d="M260.77 266.97Q269.93 263.52 279.09 259.78 288.24 255.88 297.4 251.99 306.56 248.26 315.71 244.84 324.87 241.86 334.03 239.44 343.18 237.69 352.34 236.66 361.5 236.41 370.65 236.93 379.81 238.22 388.97 240.21 398.12 242.84 407.28 245.99 416.44 249.53 425.59 253.34 434.75 257.25 443.91 261.11 453.06 264.77 462.22 268.08 471.38 270.9 480.53 273.13 489.69 274.68 498.85 275.48 508 275.51 517.16 274.76 526.32 273.26 535.47 271.07 540.62 281.84 529.3 301.62 524.13 310.78 519.82 319.93 516.58 329.09 514.52 338.24 513.76 347.4 514.31 356.55 516.16 365.71 519.23 374.86 523.37 384.02 528.42 393.17 534.15 402.33 540.3 411.48 546.62 420.64 552.82 429.79 558.64 438.95 563.82 448.1 568.13 457.26 571.39 466.41 573.45 475.57 574.23 484.72 573.69 493.88 571.85 503.03 568.8 512.19 564.66 521.34 559.62 530.5 553.9 539.65 547.75 548.81 541.43 557.97 532.47 563.05 523.52 567.38 514.56 570.77 505.6 573.1 496.64 574.26 487.68 574.22 478.72 572.98 469.76 570.58 460.8 567.11 451.84 562.73 442.88 557.6 433.93 551.93 424.97 545.94 416.01 539.88 407.05 533.97 398.09 528.47 389.13 523.59 380.17 519.52 371.21 516.42 362.25 514.43 353.29 513.61 344.34 514.01 335.38 515.6 326.42 518.32 317.46 522.07 308.5 526.69 299.54 532 290.58 537.79 281.62 543.82 272.66 549.86 262.19 543.6 266.08 524.26 268.1 515.07 269.59 505.88 270.49 496.69 270.75 487.5 270.37 478.32 269.37 469.13 267.77 459.94 265.67 450.75 263.14 441.56 260.3 432.37 257.28 423.18 254.19 413.99 251.19 404.8 248.39 395.62 245.93 386.43 243.91 377.24 242.41 368.05 241.51 358.86 241.24 349.67 241.61 340.48 242.61 331.29 244.2 322.1 246.3 312.91 248.82 303.73 251.66 294.54 254.68 285.35 257.77 276.16 260.77 266.97" stroke-dasharray="7 1" transform="rotate(103.60000000000001, 400, 400)"></path><path d="M268.77 274.45Q285.32 267.21 301.86 260.08 318.41 254 334.95 249.78 351.5 247.99 368.04 248.85 384.59 252.26 401.13 257.76 417.68 264.62 434.22 271.93 450.77 278.72 467.31 284.08 483.86 287.3 500.4 287.96 519.63 292.23 512.55 315.41 505.61 332.33 502.51 349.25 503.7 366.17 509 383.09 517.65 400.01 528.38 416.93 539.64 433.85 549.79 450.77 557.35 467.69 561.22 484.61 560.84 501.52 556.27 518.44 548.16 535.36 537.71 552.28 521.04 558.83 504.37 561.81 487.69 560.83 471.02 556.02 454.35 548.01 437.68 537.87 421.01 526.95 404.34 516.7 387.67 508.49 371 503.4 354.33 502.11 337.65 504.79 320.98 511.09 304.31 520.17 282.03 527.88 280.63 508.23 283.01 491.54 283.21 474.84 281.19 458.14 277.26 441.44 271.97 424.74 266.11 408.04 260.53 391.34 256.03 374.64 253.27 357.94 252.65 341.24 254.26 324.54 257.87 307.85 262.96 291.15 268.77 274.45" stroke-dasharray="8 8" transform="rotate(111, 400, 400)"></path><path d="M276.36 281.24Q291.18 274.48 306 268.32 320.81 263.45 335.63 260.4 350.45 259.51 365.26 260.87 380.08 264.34 394.9 269.53 409.72 275.87 424.53 282.67 439.35 289.17 454.17 294.66 468.99 298.54 483.8 300.38 501.41 306.41 496.86 328.32 492.3 343.79 491.09 359.27 493.35 374.75 498.83 390.22 506.85 405.7 516.46 421.18 526.49 436.65 535.74 452.13 543.1 467.61 547.67 483.08 548.91 498.56 546.66 514.04 541.2 529.51 533.19 544.99 517.82 548.74 502.46 549.33 487.09 546.68 471.72 541.1 456.35 533.2 440.99 523.84 425.62 514.06 410.25 504.93 394.88 497.46 379.52 492.47 364.15 490.51 348.78 491.8 333.41 496.19 318.05 503.2 297.22 509.41 294.78 491.72 296.02 476.69 295.34 461.66 292.8 446.62 288.73 431.59 283.6 416.55 278.03 401.52 272.71 386.48 268.26 371.45 265.22 356.42 263.97 341.38 264.64 326.35 267.17 311.31 271.24 296.28 276.36 281.24" stroke-dasharray="3 10" transform="rotate(118.4, 400, 400)"></path><path d="M283.88 287.72Q297.03 281.85 310.18 276.88 323.32 273.27 336.47 271.33 349.62 271.24 362.77 273 375.91 276.45 389.06 281.3 402.21 287.1 415.35 293.34 428.5 299.46 441.65 304.91 454.8 309.21 467.94 311.97 484.18 319.49 482.33 340.02 479.9 354 480.21 367.99 483.24 381.97 488.69 395.96 496.03 409.94 504.54 423.93 513.38 437.91 521.7 451.9 528.68 465.88 533.63 479.87 536.08 493.85 535.79 507.84 532.77 521.82 527.34 535.8 513.34 537.04 499.35 535.69 485.35 531.86 471.36 525.9 457.36 518.34 443.36 509.86 429.37 501.21 415.37 493.16 401.38 486.44 387.38 481.65 373.38 479.21 359.39 479.34 345.39 482.03 331.4 487.04 312.01 491.29 308.39 475.27 308.56 461.87 307.12 448.47 304.19 435.08 300.08 421.68 295.17 408.29 289.96 394.89 284.94 381.49 280.61 368.1 277.4 354.7 275.61 341.3 275.42 327.91 276.86 314.51 279.77 301.11 283.88 287.72" stroke-dasharray="2 1" transform="rotate(125.80000000000001, 400, 400)"></path><path d="M291.72 294.26Q303.26 289.58 314.81 285.92 326.35 283.54 337.89 282.61 349.44 283.18 360.98 285.23 372.52 288.61 384.07 293.07 395.61 298.3 407.15 303.94 418.7 309.58 430.24 314.83 441.78 319.31 453.33 322.71 468.33 331.31 469.04 350.29 468.37 362.74 469.85 375.19 473.34 387.64 478.59 400.09 485.18 412.54 492.62 424.99 500.31 437.44 507.67 449.89 514.12 462.34 519.18 474.79 522.44 487.24 523.65 499.69 522.72 512.14 519.73 524.58 507.18 523.78 494.62 521 482.07 516.46 469.52 510.47 456.96 503.46 444.41 495.92 431.85 488.39 419.3 481.39 406.75 475.43 394.19 470.92 381.64 468.18 369.09 467.41 356.53 468.66 343.98 471.84 326.09 473.96 321.33 459.39 320.57 447.6 318.53 435.8 315.36 424.01 311.31 412.21 306.7 400.42 301.88 388.62 297.22 376.82 293.08 365.03 289.79 353.23 287.6 341.44 286.68 329.64 287.1 317.85 288.82 306.05 291.72 294.26" stroke-dasharray="9 7" transform="rotate(133.2, 400, 400)"></path><path d="M300.26 301.28Q310.26 297.94 320.27 295.59 330.27 294.33 340.28 294.26 350.29 295.36 360.29 297.58 370.3 300.8 380.31 304.84 390.31 309.48 400.32 314.48 410.32 319.56 420.33 324.45 430.34 328.88 440.34 332.61 454.12 341.77 456.98 358.98 457.68 369.87 459.93 380.75 463.61 391.63 468.5 402.51 474.31 413.4 480.7 424.28 487.28 435.16 493.66 446.04 499.47 456.93 504.37 467.81 508.05 478.69 510.31 489.57 505.03 504.75 488.01 505.4 476.96 500.6 465.92 494.89 454.87 488.59 443.83 482.05 432.78 475.61 421.74 469.62 410.69 464.41 399.65 460.27 388.6 457.41 377.56 455.99 366.51 456.09 355.47 457.7 339.2 457.77 333.51 444.56 332.01 434.33 329.56 424.09 326.3 413.86 322.43 403.63 318.18 393.39 313.8 383.16 309.55 372.92 305.68 362.69 302.42 352.45 299.97 342.22 298.47 331.98 298.01 321.75 298.62 311.51 300.26 301.28" stroke-dasharray="0 1" transform="rotate(140.6, 400, 400)"></path><path d="M309.84 309.16Q326.9 306.44 343.95 306.31 352.48 307.77 361.01 310.04 369.54 313.03 378.07 316.61 386.6 320.64 395.12 324.97 403.65 329.42 412.18 333.82 420.71 337.98 429.24 341.74 441.7 350.87 446.11 366.08 447.73 375.38 450.4 384.67 454.01 393.97 458.41 403.26 463.41 412.56 468.77 421.85 474.28 431.15 479.69 440.44 484.76 449.74 489.28 459.03 493.04 468.33 495.88 477.62 493.28 489.99 479.39 489.07 469.91 484.39 460.43 479.23 450.94 473.77 441.46 468.24 431.97 462.86 422.49 457.85 413.01 453.4 403.52 449.69 394.04 446.87 384.56 445.06 375.07 444.31 365.59 444.67 351.12 443 344.87 431.17 342.86 422.46 340.21 413.74 337.02 405.03 333.43 396.31 329.61 387.6 325.72 378.88 321.93 370.17 318.4 361.45 315.29 352.74 312.74 344.02 310.11 326.59 309.84 309.16" stroke-dasharray="5 5" transform="rotate(148, 400, 400)"></path><path d="M320.75 318.25Q334.94 317.26 349.14 318.77 363.33 322.62 377.53 328.38 391.72 335.42 405.92 342.96 420.11 350.18 434.31 356.27 436.32 371.68 441.18 387.08 448.31 402.48 456.85 417.88 465.77 433.29 473.99 448.69 474.67 468.14 453.05 463.55 437.27 454.51 421.5 446.08 405.73 439.18 389.96 434.57 374.19 432.76 358.42 433.95 355.38 419.49 350.48 405.02 344.32 390.56 337.64 376.1 331.24 361.64 325.9 347.18 322.26 332.71 320.75 318.25" stroke-dasharray="2 4" transform="rotate(155.4, 400, 400)"></path><path d="M333.16 328.81Q344.55 329.43 355.94 331.65 367.33 335.31 378.72 340.15 390.11 345.82 401.5 351.94 412.89 358.05 424.29 363.74 427.45 375.97 432.21 388.19 438.19 400.42 444.93 412.65 451.91 424.88 458.58 437.11 460.45 452.16 443.93 447.93 431.39 440.87 418.85 434.31 406.31 428.72 393.77 424.5 381.23 421.93 368.69 421.21 365.05 409.66 360.4 398.11 355.1 386.56 349.56 375.01 344.21 363.46 339.46 351.91 335.68 340.36 333.16 328.81" stroke-dasharray="6 3" transform="rotate(162.8, 400, 400)"></path><path d="M347.15 340.99Q355.76 342.55 364.36 344.95 372.96 348.12 381.57 351.92 390.17 356.2 398.78 360.79 407.38 365.51 415.98 370.17 419.33 379.26 423.41 388.35 428.04 397.43 433.01 406.52 438.11 415.61 443.13 424.7 434.66 431.52 414.74 422.54 405.43 418.31 396.11 414.78 380.37 406.9 370 393.03 365.78 384.35 361.48 375.68 357.3 367.01 353.4 358.34 349.97 349.67 347.15 340.99" stroke-dasharray="6 6" transform="rotate(170.20000000000002, 400, 400)"></path><path d="M362.65 354.86Q374.24 358.66 385.84 363.69 397.43 369.58 409.03 375.93 414.7 387.93 421.09 399.93 424.73 414.52 409.49 410.77 397.22 405.37 384.95 401.29 379.3 389.68 373.4 378.07 367.71 366.47 362.65 354.86" stroke-dasharray="6 8" transform="rotate(177.6, 400, 400)"></path></g></svg>