<svg xmlns="http://www.w3.org/2000/svg" xmlns:xlink="http://www.w3.org/1999/xlink" viewBox="0 0 200 260.85"><defs><style>.cls-1,.cls-17{fill:none;}.cls-2{fill:#d0c6ac;}.cls-11,.cls-14,.cls-15,.cls-18,.cls-19,.cls-2,.cls-20,.cls-4,.cls-5,.cls-7{fill-rule:evenodd;}.cls-3{clip-path:url(#clip-path);}.cls-4{fill:#edb98a;}.cls-5{fill-opacity:0.1;}.cls-6{clip-path:url(#clip-path-2);}.cls-7{fill:#262e33;}.cls-8{opacity:0.9;}.cls-9{font-size:16px;font-family:Verdana;}.cls-10,.cls-9{fill:#efefef;}.cls-10{font-size:28px;font-family:BernardMT-Condensed, Bernard MT Condensed;}.cls-11{fill-opacity:0.7;}.cls-12{clip-path:url(#clip-path-3);}.cls-13{fill:#fff;}.cls-14{fill:#ff4f6d;}.cls-15{fill-opacity:0.16;}.cls-16{opacity:0;}.cls-17{stroke:#282828;stroke-miterlimit:10;stroke-width:10px;}.cls-18{fill-opacity:0.6;}.cls-19{fill:#252c2f;}</style><clipPath id="clip-path"><path class="cls-1" d="M44,72.85a56,56,0,0,1,112,0V79a12,12,0,0,1,10,11.83v14a12,12,0,0,1-10.3,11.88A56.06,56.06,0,0,1,124,161.47v18.38h4a72,72,0,0,1,72,72v9H0v-9a72,72,0,0,1,72-72h4V161.47a56,56,0,0,1-31.69-44.74A12,12,0,0,1,34,104.85v-14A12,12,0,0,1,44,79Z"/></clipPath><clipPath id="clip-path-2"><path class="cls-1" d="M134,183.35c0,11.88-15,21.5-33.5,21.5S67,195.23,67,183.35a14,14,0,0,1,.39-3.3A72,72,0,0,0,0,251.91v8.94H200v-8.94a72,72,0,0,0-66.38-71.79A14,14,0,0,1,134,183.35Z"/></clipPath><clipPath id="clip-path-3"><path id="mouth__mask" class="cls-1" d="M81.12,130a19,19,0,0,0,37.77-.09,2.1,2.1,0,0,0-1.85-2H83.09A2.13,2.13,0,0,0,81.12,130Z"/></clipPath></defs><g id="Capa_2" data-name="Capa 2"><g id="Capa_1-2" data-name="Capa 1"><g id="my_avatar"><g id="Body"><path id="Body-2" data-name="Body" class="cls-2" d="M44,72.85a56,56,0,0,1,112,0V79a12,12,0,0,1,10,11.83v14a12,12,0,0,1-10.3,11.88A56.06,56.06,0,0,1,124,161.47v18.38h4a72,72,0,0,1,72,72v9H0v-9a72,72,0,0,1,72-72h4V161.47a56,56,0,0,1-31.69-44.74A12,12,0,0,1,34,104.85v-14A12,12,0,0,1,44,79Z"/><g class="cls-3"><g id="_-Skin" data-name="ðŸŽ¨-Skin"><path id="_-Skin-2" data-name="ðŸŽ¨-Skin" class="cls-1" d="M232,16.85h0v244H-32v-244Z"/><path id="Color" class="cls-4" d="M-32,16.85H232v244H-32Z"/></g><path id="Neck-Shadow" class="cls-5" d="M44,110.85v8a56,56,0,0,0,112,0v-8a56,56,0,0,1-112,0Z"/></g></g><g id="clothes"><g class="cls-6"><g id="g_shirt"><g id="shirt_bg"><path id="_-Color-Fabric" data-name="â†³-Color-Fabric" class="cls-1" d="M232,150.85h0v110H-32v-110Z"/><path id="_Color" data-name="ðŸ–Color" class="cls-7" d="M-32,150.85H232v110H-32Z"/></g><g id="shirt_word"><g id="Graphic_Text" data-name="Graphic Text" class="cls-8"><text class="cls-9" transform="matrix(1, -0.01, 0.01, 1, 56, 246.47)">Hello world!</text><text id="_" data-name="}" class="cls-10" transform="translate(163.53 229.4) rotate(179.47)">{</text><text id="_2" data-name="{" class="cls-10" transform="translate(45.01 248.17)">{</text></g></g></g></g></g><g id="face"><g id="g_mouth"><path id="mouth" class="cls-11" d="M81.12,130a19,19,0,0,0,37.77-.09,2.1,2.1,0,0,0-1.85-2H83.09A2.13,2.13,0,0,0,81.12,130Z"/><g class="cls-12"><g id="mouth__parts"><path id="Teeth" class="cls-13" d="M111,116.85a5,5,0,0,1,5,5v6a5,5,0,0,1-5,5H90a5,5,0,0,1-5-5v-6a5,5,0,0,1,5-5Z"/><g id="Tongue"><path id="Tongue-2" data-name="Tongue" class="cls-14" d="M95,160.85a11,11,0,1,0-11-11A11,11,0,0,0,95,160.85Z"/><path id="Tongue-3" data-name="Tongue" class="cls-14" d="M105,160.85a11,11,0,1,0-11-11A11,11,0,0,0,105,160.85Z"/></g></g></g></g><g id="g_nose"><path id="nose" class="cls-15" d="M88,110.85c0,4.42,5.37,8,12,8h0c6.63,0,12-3.58,12-8"/></g><g id="g_eyes-closed" class="cls-16"><path class="cls-17" d="M116.4,96.47h0a14.8,14.8,0,0,1,21.18,0h0"/><path class="cls-17" d="M63.21,97.09h0a14.78,14.78,0,0,1,21.18,0h0"/></g><g id="g_eyes-open"><path id="eye" class="cls-18" d="M74,98.85a6,6,0,1,0-6-6A6,6,0,0,0,74,98.85Z"/><path id="eye-2" data-name="eye" class="cls-18" d="M126,98.85a6,6,0,1,0-6-6A6,6,0,0,0,126,98.85Z"/></g><g id="g_eyebrows"><g id="i_browse"><path id="eyebrow" class="cls-18" d="M59.63,80c3.92-5.51,14.65-8.6,23.89-6.33a2,2,0,0,0,1-3.88c-10.74-2.64-23.17.94-28.11,7.89A2,2,0,0,0,59.63,80Z"/><path id="eyebrow-2" data-name="eyebrow" class="cls-18" d="M117.63,80c3.92-5.51,14.65-8.6,23.89-6.33a2,2,0,0,0,1-3.88c-10.74-2.64-23.17.94-28.11,7.89A2,2,0,1,0,117.63,80Z"/></g></g></g><g id="top"><g id="accesory"><g id="Wayfarers"><path id="Left" class="cls-19" d="M66.24,114.85H69c14.72,0,25-8.43,25-20.5,0-10.37-1.82-20.5-23.53-20.5H67.53C45.82,73.85,44,84,44,94.35,44,107.19,52.31,114.85,66.24,114.85ZM48,95.35c0-8.66,0-15.5,19.39-15.5h3.22C90,79.85,90,86.69,90,95.35c0,9.13-8.64,15.5-21,15.5H66C51.12,110.85,48,102.42,48,95.35Z"/><path id="Right" class="cls-19" d="M128.24,114.85H131c14.72,0,25-8.43,25-20.5,0-10.37-1.82-20.5-23.53-20.5h-2.94C107.82,73.85,106,84,106,94.35,106,107.19,114.31,114.85,128.24,114.85ZM110,95.35c0-8.66,0-15.5,19.39-15.5h3.22C152,79.85,152,86.69,152,95.35c0,9.13-8.64,15.5-21,15.5h-3C113.12,110.85,110,102.42,110,95.35Z"/><path id="Stuff" class="cls-19" d="M38,79.62c.7-.67,8.26-5.77,29.55-5.77,17.85,0,21.63,1.86,27.35,4.65l.42.21a17.16,17.16,0,0,0,4.81.91,16.72,16.72,0,0,0,4.56-.87c6.53-3.17,12.92-4.9,27.86-4.9,21.29,0,28.85,5.1,29.54,5.77a2.92,2.92,0,0,1,3,2.89V85.4a2.92,2.92,0,0,1-3,2.88s-6.9,0-6.9,2.89-2-4.18-2-5.77V82.59a52.71,52.71,0,0,0-20.68-4c-11.84,0-17.74,2.1-22.8,4.18l.06.14v2l-2.22,5.35-2.74-1.09a14.14,14.14,0,0,0-1.5-.45,14,14,0,0,0-6-.27,8.07,8.07,0,0,0-1.89.63l-2.64,1.29-2.64-5.16.11-2.3.08-.19c-4.36-2-8.38-4.12-22.82-4.12a53,53,0,0,0-20.68,3.94V85.4c0,1.59-3,8.65-3,5.77S38,88.28,38,88.28a2.92,2.92,0,0,1-3-2.88V82.51A2.92,2.92,0,0,1,38,79.62Z"/></g></g><path id="hair" class="cls-20" d="M145.89,16.49c-5.77-4.3-12.58-8-19.69-9.39S114.59,5.31,107.47,7c-1.83.43-2.45.87-4.06-.17C102.05,6,92.58-3.79,63.7,1.63,34.51,7.11,25.84,51,15,52.71c-3.91.61-8.73-.43-8.88-2.83C1.7,56.64.53,65.58,2.41,73.51c1.62,6.82,5,13.23,11.2,17a32.23,32.23,0,0,0,18.74,4,25.22,25.22,0,0,0,7.89-2c3.09-1.36,5.56-3.8,8.59-5.09a60.65,60.65,0,0,1-10.29,7.19,24.89,24.89,0,0,1-5.73,2.27c-1.38.38-4.22,1.66-5.55,1.32a40.65,40.65,0,0,0,25-3.54,58.26,58.26,0,0,0,10.3-6.14c3.18-2.39,6.83-4.83,9.32-8-1,1.35.78-.66,1-.9q1-1.05,2-2.13c1.12-1.24,2.23-2.5,3.28-3.8A83.17,83.17,0,0,0,84.39,65C86.27,61.89,93.76,49.43,96,46.49c-2.14,6.4-4.46,12.81-7.19,19,5.29-1.65,10.41-6.22,13.79-10.47a33.14,33.14,0,0,0,6.85-16.44c4.28,11.67,14.33,20.88,24.7,27.23-2.25-4.18-5.67-7.72-7.91-12,10.3,10.46,27.54,15.58,32.06,30.92,1.16-5.34,4.88-9.62,6-15.06a81.21,81.21,0,0,0,1.93-18.63C165.8,37.32,156.57,24.45,145.89,16.49Z"/></g></g></g></g></svg>