<svg width="180" height="65" viewBox="0 0 180 65" fill="none" xmlns="http://www.w3.org/2000/svg">
<path d="M15.5227 50V20.9091H19.0455V46.875H32.5682V50H15.5227ZM41.0518 50H37.3587L48.0405 20.9091H51.6768L62.3587 50H58.6655L49.9723 25.5114H49.745L41.0518 50ZM42.4155 38.6364H57.3018V41.7614H42.4155V38.6364Z" fill="white"/>
<line x1="73.5" y1="7" x2="73.5" y2="58" stroke="white" stroke-width="3"/>
<path d="M85.3125 52H81.4972V39.6364H85.4815C86.6809 39.6364 87.7071 39.8839 88.5604 40.3789C89.4136 40.8699 90.0676 41.5762 90.5224 42.4979C90.9772 43.4155 91.2045 44.5142 91.2045 45.794C91.2045 47.0819 90.9751 48.1907 90.5163 49.1204C90.0575 50.046 89.3894 50.7584 88.5121 51.2575C87.6347 51.7525 86.5682 52 85.3125 52ZM82.9943 50.6719H85.2159C86.2382 50.6719 87.0853 50.4747 87.7575 50.0803C88.4296 49.6858 88.9306 49.1244 89.2607 48.396C89.5907 47.6675 89.7557 46.8002 89.7557 45.794C89.7557 44.7959 89.5927 43.9367 89.2667 43.2163C88.9407 42.4918 88.4537 41.9364 87.8058 41.5501C87.1578 41.1597 86.3509 40.9645 85.3849 40.9645H82.9943V50.6719ZM93.7159 52V39.6364H101.178V40.9645H95.2131V45.142H100.791V46.4702H95.2131V50.6719H101.274V52H93.7159ZM104.383 39.6364L108.054 50.044H108.199L111.869 39.6364H113.439L108.899 52H107.353L102.814 39.6364H104.383ZM115.364 52V39.6364H122.826V40.9645H116.862V45.142H122.44V46.4702H116.862V50.6719H122.923V52H115.364ZM125.525 52V39.6364H127.022V50.6719H132.769V52H125.525ZM145.037 45.8182C145.037 47.1222 144.802 48.2491 144.331 49.1989C143.86 50.1487 143.214 50.8812 142.393 51.3963C141.572 51.9115 140.634 52.169 139.58 52.169C138.526 52.169 137.588 51.9115 136.767 51.3963C135.946 50.8812 135.3 50.1487 134.829 49.1989C134.358 48.2491 134.123 47.1222 134.123 45.8182C134.123 44.5142 134.358 43.3873 134.829 42.4375C135.3 41.4877 135.946 40.7552 136.767 40.2401C137.588 39.7249 138.526 39.4673 139.58 39.4673C140.634 39.4673 141.572 39.7249 142.393 40.2401C143.214 40.7552 143.86 41.4877 144.331 42.4375C144.802 43.3873 145.037 44.5142 145.037 45.8182ZM143.589 45.8182C143.589 44.7476 143.409 43.8441 143.051 43.1076C142.697 42.3711 142.216 41.8137 141.608 41.4354C141.005 41.0571 140.329 40.8679 139.58 40.8679C138.831 40.8679 138.153 41.0571 137.546 41.4354C136.942 41.8137 136.461 42.3711 136.103 43.1076C135.749 43.8441 135.571 44.7476 135.571 45.8182C135.571 46.8887 135.749 47.7923 136.103 48.5288C136.461 49.2653 136.942 49.8227 137.546 50.201C138.153 50.5793 138.831 50.7685 139.58 50.7685C140.329 50.7685 141.005 50.5793 141.608 50.201C142.216 49.8227 142.697 49.2653 143.051 48.5288C143.409 47.7923 143.589 46.8887 143.589 45.8182ZM147.555 52V39.6364H151.732C152.702 39.6364 153.495 39.8114 154.111 40.1616C154.731 40.5077 155.189 40.9766 155.487 41.5682C155.785 42.1598 155.934 42.8198 155.934 43.5483C155.934 44.2768 155.785 44.9388 155.487 45.5344C155.194 46.1301 154.739 46.605 154.123 46.9592C153.507 47.3093 152.718 47.4844 151.756 47.4844H148.762V46.1562H151.708C152.372 46.1562 152.906 46.0415 153.308 45.8121C153.71 45.5827 154.002 45.2728 154.183 44.8825C154.368 44.488 154.461 44.0433 154.461 43.5483C154.461 43.0533 154.368 42.6106 154.183 42.2202C154.002 41.8298 153.708 41.5239 153.302 41.3026C152.895 41.0772 152.356 40.9645 151.684 40.9645H149.052V52H147.555ZM158.346 52V39.6364H165.807V40.9645H159.843V45.142H165.421V46.4702H159.843V50.6719H165.904V52H158.346ZM168.506 52V39.6364H172.684C173.649 39.6364 174.442 39.8014 175.062 40.1314C175.682 40.4574 176.141 40.9061 176.438 41.4776C176.736 42.0491 176.885 42.6991 176.885 43.4276C176.885 44.156 176.736 44.802 176.438 45.3654C176.141 45.9289 175.684 46.3716 175.068 46.6935C174.452 47.0115 173.666 47.1705 172.708 47.1705H169.327V45.8182H172.659C173.319 45.8182 173.851 45.7216 174.253 45.5284C174.66 45.3352 174.953 45.0616 175.134 44.7074C175.32 44.3492 175.412 43.9226 175.412 43.4276C175.412 42.9325 175.32 42.4999 175.134 42.1296C174.949 41.7594 174.654 41.4736 174.247 41.2724C173.841 41.0671 173.303 40.9645 172.635 40.9645H170.003V52H168.506ZM174.326 46.446L177.368 52H175.63L172.635 46.446H174.326Z" fill="white"/>
<rect x="80" y="14" width="54" height="21" rx="1" fill="white"/>
</svg>
