<svg id="Capa_1" data-name="Capa 1" xmlns="http://www.w3.org/2000/svg" xmlns:xlink="http://www.w3.org/1999/xlink" viewBox="0 0 264 280"><defs><style>.cls-1{fill:none;}.cls-2{fill:#d0c6ac;}.cls-12,.cls-15,.cls-16,.cls-17,.cls-19,.cls-2,.cls-20,.cls-4,.cls-5,.cls-6,.cls-8{fill-rule:evenodd;}.cls-3{clip-path:url(#clip-path);}.cls-4{fill:#edb98a;}.cls-5{fill-opacity:0.1;}.cls-6{fill:#e6e6e6;}.cls-7{clip-path:url(#clip-path-2);}.cls-8{fill:#262e33;}.cls-9{opacity:0.9;}.cls-10{font-size:11px;font-family:Verdana;}.cls-10,.cls-11{fill:#efefef;}.cls-11{font-size:24px;font-family:BernardMT-Condensed, Bernard MT Condensed;}.cls-12{fill-opacity:0.7;}.cls-13{clip-path:url(#clip-path-3);}.cls-14{fill:#fff;}.cls-15{fill:#ff4f6d;}.cls-16{fill-opacity:0.16;}.cls-17{fill-opacity:0.6;}.cls-18{clip-path:url(#clip-path-4);}.cls-19{fill:#252c2f;}</style><clipPath id="clip-path"><path class="cls-1" d="M76,92a56,56,0,0,1,112,0v6.17A12,12,0,0,1,198,110v14a12,12,0,0,1-10.3,11.88A56,56,0,0,1,156,180.61V199h4a72,72,0,0,1,72,72v9H32v-9a72,72,0,0,1,72-72h4V180.61a56,56,0,0,1-31.69-44.73A12,12,0,0,1,66,124V110A12,12,0,0,1,76,98.17Z"/></clipPath><clipPath id="clip-path-2"><path class="cls-1" d="M166,202.5c0,11.87-15,21.5-33.5,21.5S99,214.37,99,202.5a14,14,0,0,1,.39-3.3A72,72,0,0,0,32,271.05V280H232v-8.95a72,72,0,0,0-66.38-71.78A13.92,13.92,0,0,1,166,202.5Z"/></clipPath><clipPath id="clip-path-3"><path class="cls-1" d="M113.12,149.13a19,19,0,0,0,37.77-.09,2.09,2.09,0,0,0-1.85-2H115.09A2.13,2.13,0,0,0,113.12,149.13Z"/></clipPath><clipPath id="clip-path-4"><rect class="cls-1" width="264" height="280"/></clipPath></defs><g id="avataaar"><path id="avataaar-2" data-name="avataaar" class="cls-1" d="M264,0h0V280H0V0Z"/><g id="Body"><path id="Body-2" data-name="Body" class="cls-2" d="M76,92a56,56,0,0,1,112,0v6.17A12,12,0,0,1,198,110v14a12,12,0,0,1-10.3,11.88A56,56,0,0,1,156,180.61V199h4a72,72,0,0,1,72,72v9H32v-9a72,72,0,0,1,72-72h4V180.61a56,56,0,0,1-31.69-44.73A12,12,0,0,1,66,124V110A12,12,0,0,1,76,98.17Z"/><g class="cls-3"><g id="_-Skin" data-name="ðŸŽ¨-Skin"><path id="_-Skin-2" data-name="ðŸŽ¨-Skin" class="cls-1" d="M264,36h0V280H0V36Z"/><path id="Color" class="cls-4" d="M0,36H264V280H0Z"/></g><path id="Neck-Shadow" class="cls-5" d="M76,130v8a56,56,0,0,0,112,0v-8a56,56,0,0,1-112,0Z"/></g></g><g id="_-Clothes" data-name="ðŸ‘”-Clothes"><path id="_-Clothes-2" data-name="ðŸ‘”-Clothes" class="cls-1" d="M264,170h0V280H0V170Z"/><path id="Clothes" class="cls-6" d="M166,202.5c0,11.87-15,21.5-33.5,21.5S99,214.37,99,202.5a14,14,0,0,1,.39-3.3A72,72,0,0,0,32,271.05V280H232v-8.95a72,72,0,0,0-66.38-71.78A13.92,13.92,0,0,1,166,202.5Z"/><g class="cls-7"><g id="_-Color-Fabric" data-name="â†³-Color-Fabric"><path id="_-Color-Fabric-2" data-name="â†³-Color-Fabric" class="cls-1" d="M264,170h0V280H0V170Z"/><path id="_Color" data-name="ðŸ–Color" class="cls-8" d="M0,170H264V280H0Z"/></g><g id="_-Graphic" data-name="â†³-Graphic"><path id="_-Graphic-2" data-name="â†³-Graphic" class="cls-1" d="M187,228h0v44H77V228Z"/><g id="Graphic_Text" data-name="Graphic Text" class="cls-9"><text class="cls-10" transform="matrix(1, -0.01, 0.01, 1, 101.85, 259.11)">Hello world!</text><text class="cls-11" transform="translate(90.62 262.33)">{</text><text id="_" data-name="}" class="cls-11" transform="translate(178.15 246.41) rotate(179.47)">{</text></g></g></g></g><g id="Face"><g id="_-Mouth" data-name="ðŸ‘„-Mouth"><path id="_-Mouth-2" data-name="ðŸ‘„-Mouth" class="cls-1" d="M186,134h0v44H78V134Z"/><path id="Mouth" class="cls-12" d="M113.12,149.13a19,19,0,0,0,37.77-.09,2.09,2.09,0,0,0-1.85-2H115.09A2.13,2.13,0,0,0,113.12,149.13Z"/><g class="cls-13"><path id="Teeth" class="cls-14" d="M143,136a5,5,0,0,1,5,5v6a5,5,0,0,1-5,5H122a5,5,0,0,1-5-5v-6a5,5,0,0,1,5-5Z"/><g id="Tongue"><path id="Tongue-2" data-name="Tongue" class="cls-15" d="M127,180a11,11,0,1,0-11-11A11,11,0,0,0,127,180Z"/><path id="Tongue-3" data-name="Tongue" class="cls-15" d="M137,180a11,11,0,1,0-11-11A11,11,0,0,0,137,180Z"/></g></g></g><g id="_-Nose" data-name="ðŸ‘ƒðŸ½-Nose"><path id="_-Nose-2" data-name="ðŸ‘ƒðŸ½-Nose" class="cls-1" d="M160,122h0v24H104V122Z"/><path id="Nose" class="cls-16" d="M120,130c0,4.42,5.37,8,12,8h0c6.63,0,12-3.58,12-8"/></g><g id="_-Eyes" data-name="ðŸ‘-Eyes"><path id="_-Eyes-2" data-name="ðŸ‘-Eyes" class="cls-1" d="M188,90h0v44H76V90Z"/><path id="Eye" class="cls-17" d="M106,118a6,6,0,1,0-6-6A6,6,0,0,0,106,118Z"/><path id="Eye-2" data-name="Eye" class="cls-17" d="M158,118a6,6,0,1,0-6-6A6,6,0,0,0,158,118Z"/></g><g id="_-Eyebrow" data-name="âœï¸-Eyebrow"><path id="_-Eyebrow-2" data-name="âœï¸-Eyebrow" class="cls-1" d="M188,82h0v24H76V82Z"/><g id="I-Browse"><path id="Eyebrow" class="cls-17" d="M91.63,99.16c3.92-5.51,14.65-8.6,23.89-6.33a2,2,0,1,0,1-3.88c-10.74-2.64-23.17.94-28.11,7.89a2,2,0,0,0,3.26,2.32Z"/><path id="Eyebrow-2" data-name="Eyebrow" class="cls-17" d="M149.63,99.16c3.92-5.51,14.65-8.6,23.89-6.33a2,2,0,0,0,1-3.88c-10.74-2.64-23.17.94-28.11,7.89a2,2,0,1,0,3.26,2.32Z"/></g></g></g><g id="Top"><path id="Mask" class="cls-1" d="M0,0H264V280H0Z"/><g class="cls-18"><g id="Top-2" data-name="Top"><path id="Top-3" data-name="Top" class="cls-1" d="M265,0h0V280H-1V0Z"/><g id="Facial-Hair"><path id="Facial-Hair-2" data-name="Facial-Hair" class="cls-1" d="M216,72h0V224H48V72Z"/></g><g id="_-_-Accessory" data-name="â†³-ðŸ‘“-Accessory"><path id="_-_-Accessory-2" data-name="â†³-ðŸ‘“-Accessory" class="cls-1" d="M203,86h0v54H61V86Z"/><g id="Wayfarers"><path id="Left" class="cls-19" d="M98.24,134H101c14.72,0,25-8.43,25-20.5,0-10.37-1.82-20.5-23.53-20.5H99.53C77.82,93,76,103.13,76,113.5,76,126.34,84.31,134,98.24,134ZM80,114.5C80,105.84,80,99,99.39,99h3.22C122,99,122,105.84,122,114.5c0,9.13-8.64,15.5-21,15.5H98C83.12,130,80,121.57,80,114.5Z"/><path id="Right" class="cls-19" d="M160.24,134H163c14.72,0,25-8.43,25-20.5,0-10.37-1.82-20.5-23.53-20.5h-2.94C139.82,93,138,103.13,138,113.5,138,126.34,146.31,134,160.24,134ZM142,114.5c0-8.66,0-15.5,19.39-15.5h3.22C184,99,184,105.84,184,114.5c0,9.13-8.64,15.5-21,15.5h-3C145.12,130,142,121.57,142,114.5Z"/><path id="Stuff" class="cls-19" d="M70,98.77C70.65,98.1,78.21,93,99.5,93c17.85,0,21.63,1.85,27.35,4.65l.42.21a17.16,17.16,0,0,0,4.81.91,17.13,17.13,0,0,0,4.56-.87c6.53-3.18,12.92-4.9,27.86-4.9,21.29,0,28.85,5.1,29.54,5.77a2.92,2.92,0,0,1,3,2.89v2.88a2.92,2.92,0,0,1-3,2.89s-6.9,0-6.9,2.88-2-4.17-2-5.77v-2.81a52.76,52.76,0,0,0-20.68-3.94c-11.84,0-17.74,2.1-22.8,4.18l.06.14v2l-2.22,5.35-2.74-1.08a12,12,0,0,0-1.5-.45,14,14,0,0,0-6-.28,7.65,7.65,0,0,0-1.89.64l-2.64,1.29-2.64-5.16.11-2.3.08-.19c-4.36-2-8.38-4.12-22.82-4.12a52.76,52.76,0,0,0-20.68,3.94v2.81c0,1.6-3,8.66-3,5.77S70,107.43,70,107.43a2.92,2.92,0,0,1-3-2.89v-2.88A2.92,2.92,0,0,1,70,98.77Z"/></g></g><path id="Shaggy-Hair" class="cls-20" d="M177.89,35.64c-5.77-4.3-12.58-8-19.69-9.39s-11.61-1.79-18.73-.09c-1.83.44-2.45.88-4.06-.16-1.36-.88-10.83-10.64-39.71-5.22C66.51,26.25,57.84,70.19,47,71.86c-3.91.6-8.73-.43-8.88-2.83-4.44,6.76-5.61,15.7-3.73,23.62,1.62,6.83,5,13.24,11.2,17a32.16,32.16,0,0,0,18.74,4,25.22,25.22,0,0,0,7.89-2c3.09-1.36,5.56-3.81,8.59-5.1a60.14,60.14,0,0,1-10.29,7.2A25.35,25.35,0,0,1,64.81,116c-1.38.37-4.22,1.66-5.55,1.32a40.73,40.73,0,0,0,25-3.54,58.26,58.26,0,0,0,10.3-6.14c3.18-2.39,6.83-4.83,9.32-8-1,1.35.78-.66,1-.91.68-.69,1.35-1.4,2-2.12,1.12-1.24,2.23-2.5,3.28-3.8a83.17,83.17,0,0,0,6.18-8.75C118.27,81,125.76,68.58,128,65.64c-2.14,6.4-4.46,12.8-7.19,19,5.29-1.65,10.41-6.22,13.79-10.48a33.1,33.1,0,0,0,6.85-16.44c4.28,11.68,14.33,20.89,24.7,27.24-2.25-4.18-5.67-7.72-7.91-12,10.3,10.46,27.54,15.58,32.06,30.91,1.16-5.33,4.88-9.62,6-15.06a81.1,81.1,0,0,0,1.93-18.63C197.8,56.47,188.57,43.6,177.89,35.64Z"/></g></g></g></g></svg>